<svg width="161px" height="161px" viewBox="0 0 161 161" version="1.1" xmlns="http://www.w3.org/2000/svg" xmlns:xlink="http://www.w3.org/1999/xlink">
    <g id="Page-1" stroke="none" stroke-width="1" fill="none" fill-rule="evenodd">
        <g id="Artboard" transform="translate(-1170.000000, -3109.000000)" fill="#F3F3F3" fill-rule="nonzero">
            <g id="Group" transform="translate(1170.000000, 3109.000000)">
                <path d="M7.82887902,114.582765 L48.8476957,90.8714696 C47.7079898,87.4532973 47.0518331,83.8900063 47.0518331,80.264808 C47.0518331,76.8466357 47.6164353,73.5101464 48.5989042,70.3292848 L7.4186498,46.5293321 C-2.26407723,67.4635 -2.81817786,92.0464634 7.82887902,114.582765 Z" id="Path"></path>
                <path d="M73.7066126,47.5503223 L73.7066126,2.27373675e-13 C48.9586304,2.10436518 27.7259031,15.2402393 14.5386137,34.0981295 L55.6757162,57.8730518 C60.3943546,52.6221223 66.7090396,49.0010321 73.7066126,47.5503223 Z" id="Path"></path>
                <path d="M113.982492,80.2647125 C113.982492,83.8029732 113.373019,87.2671938 112.312457,90.5722518 L153.362778,114.224697 C163.849257,91.8359027 163.131904,67.3719768 153.771289,46.896667 L112.478572,70.7619661 C113.387626,73.8249366 113.982492,76.9988241 113.982492,80.2647125 Z" id="Path"></path>
                <path d="M88.0269251,0.297307143 L88.0269251,47.6920018 C94.8532271,49.2599339 100.989004,52.9270723 105.599858,58.1908036 L146.69209,34.4410071 C133.98434,16.0143652 113.799669,2.69840625 88.0269251,0.297307143 Z" id="Path"></path>
                <path d="M146.065147,126.561988 L105.0912,102.953298 C100.512424,107.947619 94.6044356,111.384421 88.0270206,112.872485 L88.0270206,160.461308 C111.738594,158.250898 132.319747,146.066464 146.065147,126.561988 Z" id="Path"></path>
                <path d="M99.662179,80.2647125 C99.662179,69.8499821 91.2309518,61.1958795 80.8014682,61.1109482 L80.8008954,61.0975732 C80.6989348,61.0964268 80.6132993,61.0445509 80.5124843,61.0392964 L80.5124843,61.1110438 C69.9139256,61.1110438 61.3721456,69.6321607 61.3721456,80.264808 C61.3721456,90.8455795 69.8979823,99.4279348 80.5124843,99.4279348 C91.5137303,99.325425 99.662179,90.6439991 99.662179,80.2647125 Z" id="Path"></path>
                <path d="M15.1859873,126.877447 C29.0340159,146.204036 49.6421867,158.495565 73.7066126,160.522546 L73.7066126,112.959327 C66.9054189,111.545303 60.8657793,108.157511 56.1855193,103.177138 L15.1859873,126.877447 Z" id="Path"></path>
            </g>
        </g>
    </g>
</svg>